<svg xmlns="http://www.w3.org/2000/svg" viewBox="17.1037 -42.975 980.425 974.978">
    <path d="M948.507-42.975c-10.894 0-32.681 0-43.574 10.894l-871.489 871.489c-21.787 21.787-21.787 54.468 0 76.255s54.468 21.787 76.255 0l871.489-871.489c21.787-21.787 21.787-54.468 0-76.255 0-10.894-21.787-10.894-32.681-10.894zM77.018-42.975c-10.894 0-32.681 0-43.574 10.894-21.787 21.787-21.787 54.468 0 76.255l871.489 871.489c21.787 21.787 54.468 21.787 76.255 0s21.787-54.468 0-76.255l-871.489-871.489c0-10.894-21.787-10.894-32.681-10.894z" />
</svg>